<svg xmlns="http://www.w3.org/2000/svg" viewBox="0 0 100 100">
  <line x1="5" y1="85" x2="95" y2="85" stroke="#333333" stroke-width="4" stroke-linecap="round" />
  
  <rect x="8" y="70" width="18" height="12" rx="2" fill="#9ca3af" />
  
  <path d="M 22 45 L 85 45 C 90 45 92 48 92 55 L 92 75 L 22 75 Z" fill="#4ad3ff" />
  
  <path d="M 22 45 L 22 30 C 22 28 24 26 26 26 L 40 26 C 42 26 44 28 44 30 L 44 45 Z" fill="#111111" />
  
  <line x1="42" y1="35" x2="48" y2="30" stroke="#f3f4f6" stroke-width="3" stroke-linecap="round" />
  <line x1="46" y1="28" x2="52" y2="34" stroke="#f3f4f6" stroke-width="3" stroke-linecap="round" />
  
  <circle cx="35" cy="75" r="12" fill="#111111" stroke="#f3f4f6" stroke-width="3"/>
  <circle cx="75" cy="75" r="10" fill="#111111" stroke="#f3f4f6" stroke-width="3"/>
  
  <circle cx="35" cy="75" r="3" fill="#9ca3af" />
  <circle cx="75" cy="75" r="2.5" fill="#9ca3af" />
  
  <line x1="8" y1="55" x2="16" y2="55" stroke="#4ad3ff" stroke-width="2" stroke-linecap="round" />
  <line x1="4" y1="65" x2="12" y2="65" stroke="#4ad3ff" stroke-width="2" stroke-linecap="round" />
</svg>
